<svg width="811" height="550" viewBox="0 0 3306 3314" fill="none" xmlns="http://www.w3.org/2000/svg">
<g id="loadingAnimationSvg">
<g id="Group 12">
<path id="Vector" d="M2068.41 1242.82L1514.27 547.785C1489.11 570.881 1458.11 586.593 1424.65 593.204C1320.33 613.826 1218.44 542.321 1197.09 433.494C1189.73 397.503 1192.3 360.178 1204.53 325.547C1216.76 290.917 1238.18 260.295 1266.47 236.988L1077.53 0L1.06787 923.402L991.958 2166.23L2068.41 1242.82Z" fill="#BAB8C0"/>
<path id="Vector_2" d="M1379.87 560.182C1466.15 560.182 1536.09 489.98 1536.09 403.381C1536.09 316.782 1466.15 246.58 1379.87 246.58C1293.59 246.58 1223.64 316.782 1223.64 403.381C1223.64 489.98 1293.59 560.182 1379.87 560.182Z" fill="#F2F2F2"/>
<path id="Vector_3" d="M402.356 1102.06L354.557 1157.58L515.596 1297.25L563.395 1241.73L402.356 1102.06Z" fill="#00BFA6"/>
<path id="Vector_4" d="M1437.57 2095.01L1389.77 2150.54L1532.52 2274.34L1580.32 2218.81L1437.57 2095.01Z" fill="#00BFA6"/>
<path id="Vector_5" d="M1695.49 1681.46V1685.76C1695.39 1696.57 1695.08 1707.33 1694.57 1718.05C1685.27 1901.4 1606.47 2074.24 1474.3 2201.15C1342.13 2328.05 1166.61 2399.42 983.705 2400.62C800.8 2401.82 624.363 2332.77 490.552 2207.6C356.741 2082.44 275.691 1910.65 264.01 1727.44C263.035 1712.23 262.547 1696.9 262.547 1681.46C262.29 1532.51 308.345 1387.2 394.291 1265.78C401.163 1256 408.311 1246.39 415.736 1236.97C420.853 1230.41 426.117 1224.01 431.43 1217.65C552.377 1073.83 724.665 983.329 911.331 965.55C1098 947.771 1284.17 1004.13 1429.91 1122.55C1438.54 1129.54 1447.02 1136.78 1455.3 1144.17C1461.93 1150.09 1468.45 1156.14 1474.85 1162.32C1600.91 1283.35 1678.51 1446.5 1693.01 1620.99C1694.66 1640.95 1695.49 1661.1 1695.49 1681.46Z" fill="#F2F2F2"/>
<path id="Vector_6" d="M979.021 2491.08C534.239 2491.08 172.381 2127.88 172.381 1681.46C172.118 1477.2 249.032 1280.45 387.611 1130.87L405.474 1147.51C271.083 1292.57 196.494 1483.38 196.751 1681.46C196.751 2114.4 547.676 2466.62 979.021 2466.62C1083.83 2466.98 1187.62 2446.02 1284.14 2405.02C1380.66 2364.02 1467.9 2303.82 1540.61 2228.05L1558.1 2245.08C1483.13 2323.21 1393.17 2385.28 1293.64 2427.56C1194.12 2469.84 1087.09 2491.45 979.021 2491.08Z" fill="#00BFA6"/>
<path id="Vector_7" d="M1096 2473.96H891.289V2679.42H1096V2473.96Z" fill="#00BFA6"/>
<path id="Vector_8" d="M415.736 1236.97C416.087 1237.12 416.416 1237.31 416.711 1237.56C420.561 1240.74 415.736 1246.85 416.321 1251.89C417.003 1258.35 425.581 1259.77 432.064 1260.4C438.546 1261.09 446.735 1266.32 443.664 1272.09C427.385 1277.72 410.911 1272.19 394.291 1265.78C308.345 1387.2 262.29 1532.51 262.547 1681.46C262.547 1696.91 263.035 1712.24 264.01 1727.44C265.373 1728.44 266.865 1729.24 268.445 1729.84C273.319 1731.7 278.973 1731.35 283.457 1734C287.015 1736.1 289.403 1739.82 292.961 1741.77C303.148 1747.35 317.282 1736.64 326.786 1743.29C329.243 1745.54 331.57 1747.92 333.756 1750.43C342.529 1758.06 356.956 1752.93 367.094 1758.65C373.625 1762.32 376.988 1769.66 380.498 1776.31C389.222 1792.94 403.357 1809.28 422.024 1810.6C427.911 1810.33 433.811 1810.53 439.667 1811.19C445.419 1812.51 451.073 1817.55 450.147 1823.37C448.538 1833.4 453.461 1844.36 452.145 1854.39C449.756 1872.73 423.876 1880.76 421.683 1899.1C421.675 1903.14 421.448 1907.17 421 1911.18C419.831 1915.98 416.224 1919.89 414.956 1924.69C412.52 1933.74 419.002 1942.79 426.069 1948.85C433.185 1954.97 441.666 1960.25 445.565 1968.76C449.659 1977.81 447.661 1988.33 448.977 1998.16C451.901 2019.64 470.373 2035.54 489.382 2045.81C495.473 2048.37 500.882 2052.32 505.174 2057.36C510.047 2064.45 509.56 2073.79 511.217 2082.26C515.214 2102.95 532.565 2120.02 533.053 2141.11C533.394 2156.13 525.108 2169.73 520.137 2183.86C515.023 2198.68 513.502 2214.51 515.701 2230.04C543.492 2253.7 573.032 2275.21 604.066 2294.37C605.754 2291.87 606.991 2289.09 607.721 2286.15C608.311 2282.91 607.904 2279.56 606.555 2276.56C605.206 2273.55 602.978 2271.03 600.167 2269.33C605.405 2267.34 610.17 2264.27 614.155 2260.32C616.113 2258.3 617.406 2255.73 617.859 2252.95C618.312 2250.16 617.904 2247.31 616.689 2244.77C625.268 2245.84 635.454 2246.38 641.108 2239.78C645.641 2234.49 645.348 2226.57 643.545 2219.87C641.07 2213.35 639.432 2206.55 638.671 2199.61C658.546 2200.59 678.466 2199.92 698.231 2197.61C695.371 2187.93 688.867 2179.76 680.1 2174.81C689.068 2173.3 697.207 2162.53 700.034 2153.87C702.479 2145.04 702.613 2135.72 700.424 2126.82C699.746 2124.53 699.646 2122.11 700.132 2119.78C701.574 2116.68 704.109 2114.22 707.248 2112.88C722.065 2104.32 736.881 2095.77 751.698 2087.25C754.342 2085.91 756.747 2084.14 758.814 2082.01C763.444 2076.48 762.762 2068.22 760.374 2061.42C757.986 2054.62 754.184 2048.21 753.258 2041.07C750.529 2019.69 773.339 2004.33 781.04 1984.17C783.658 1976.13 785.07 1967.73 785.231 1959.27C785.865 1950.17 785.913 1939.65 778.992 1933.83C772.315 1928.21 761.934 1929.48 754.964 1924.24C748.579 1919.45 746.386 1910.2 739.416 1906.34C733.08 1902.82 725.184 1905.07 718.117 1903.41C705.737 1900.52 697.939 1886.19 685.266 1884.86C678.15 1884.08 670.059 1887.6 664.211 1883.45C659.044 1879.73 658.849 1872.34 657.874 1866.08C656.144 1856.33 651.48 1847.34 644.509 1840.32C637.539 1833.31 628.596 1828.61 618.883 1826.85C611.523 1825.67 603.53 1826.11 597.242 1822.05C590.906 1817.94 588.031 1810.26 583.01 1804.54C575.017 1795.39 562.345 1792.11 550.501 1789.32C534.417 1785.56 518.349 1781.77 502.298 1777.97C493.768 1775.92 482.753 1774.84 478.123 1782.38C476.753 1785.24 475.801 1788.29 475.296 1791.43C473.555 1797.07 470.083 1802.02 465.375 1805.57C460.666 1809.12 454.962 1811.09 449.074 1811.19C445.044 1804.28 438.515 1799.2 430.846 1797C425.835 1796.16 420.885 1794.98 416.029 1793.48C413.493 1792.23 411.237 1790.48 409.399 1788.33C407.561 1786.18 406.181 1783.67 405.341 1780.96C404.502 1778.26 404.221 1775.41 404.517 1772.59C404.812 1769.77 405.678 1767.04 407.061 1764.57C409.824 1759.61 410.887 1753.87 410.086 1748.24C409.285 1742.61 406.664 1737.4 402.625 1733.41C394.437 1726.02 382.593 1724.21 371.578 1724.95C368.703 1718.63 373.528 1711.54 378.694 1706.94C383.909 1702.39 390.197 1697.89 391.318 1691.04C393.121 1680.28 379.425 1672.11 369.044 1675.29C358.662 1678.52 352.034 1688.65 347.647 1698.63C345.52 1704.51 342.618 1710.09 339.02 1715.21C337.177 1717.74 334.671 1719.71 331.781 1720.9C328.89 1722.1 325.728 1722.46 322.644 1721.96C314.065 1719.76 310.8 1709.54 308.899 1700.93C305.853 1689.42 304.313 1677.56 304.318 1665.65C304.392 1653.63 309.15 1642.11 317.575 1633.56C331.758 1620.45 353.593 1621.72 372.748 1623.83C370.696 1621.08 369.713 1617.68 369.982 1614.26C370.251 1610.83 371.755 1607.63 374.21 1605.24C376.774 1602.95 379.854 1601.33 383.183 1600.51C386.513 1599.69 389.991 1599.7 393.316 1600.54C399.091 1601.74 404.294 1604.86 408.084 1609.4C413.543 1616.05 415.103 1625.1 419.197 1632.63C423.34 1640.22 432.6 1646.67 440.155 1642.61C446.735 1639.09 447.758 1629.99 446.15 1622.7C444.493 1615.46 441.032 1608.37 441.617 1600.93C442.738 1586.8 457.409 1578.23 470.325 1572.41C483.241 1566.59 498.009 1558.72 500.056 1544.63C500.151 1541.89 500.677 1539.18 501.616 1536.6C503.045 1534.3 505.043 1532.42 507.416 1531.12C545.092 1506.13 583.45 1480.79 626.535 1467.14C628.777 1466.4 629.021 1467.19 631.312 1466.65C634.529 1464.79 632.384 1459.65 629.314 1457.6C626.243 1455.54 622.149 1453.93 621.369 1450.31C620.833 1447.67 622.393 1445.03 622.783 1442.33C622.884 1440.71 622.587 1439.08 621.918 1437.6C621.248 1436.12 620.227 1434.82 618.942 1433.83C617.658 1432.83 616.15 1432.17 614.55 1431.9C612.951 1431.62 611.309 1431.75 609.769 1432.26C606.309 1427.66 613.132 1422.33 618.688 1420.76C635.325 1416.19 652.398 1413.4 669.621 1412.44C671.609 1412.12 673.65 1412.46 675.421 1413.42C676.688 1414.65 677.439 1416.32 677.52 1418.08C677.602 1419.85 677.008 1421.57 675.86 1422.91C673.515 1425.53 670.919 1427.9 668.11 1430.01C665.314 1432.73 663.317 1436.18 662.337 1439.96C661.357 1443.75 661.433 1447.74 662.554 1451.48C671.571 1456.08 681.319 1460.83 691.31 1459.21C701.253 1457.6 710.075 1446.35 705.396 1437.39C701.058 1429.03 687.948 1427.12 685.705 1417.97C683.074 1407.26 698.183 1397.72 694.771 1387.25C693.309 1382.65 688.727 1379.91 685.218 1376.64C681.088 1372.55 678.279 1367.32 677.158 1361.61C676.036 1355.9 676.654 1349.99 678.93 1344.64C673.225 1345.64 667.363 1345.26 661.835 1343.52C656.307 1341.79 651.272 1338.75 647.152 1334.66C639.549 1326.98 633.505 1314.8 622.685 1315.19C612.791 1315.49 604.261 1327.08 595.001 1323.56C592.71 1322.68 590.322 1320.92 588.129 1321.94C587.405 1322.41 586.797 1323.04 586.349 1323.77C585.902 1324.51 585.627 1325.34 585.545 1326.2C583.206 1337.5 587.251 1350.37 581.11 1360.15C574.433 1370.76 558.982 1372.23 550.892 1381.82C546.505 1387.01 544.799 1394 540.754 1399.48C536.708 1404.96 528.179 1408.48 523.305 1403.69C525.692 1398.78 526.345 1393.2 525.159 1387.86C523.972 1382.53 521.016 1377.76 516.774 1374.34C512.285 1371.38 507.436 1369.01 502.347 1367.29C496.662 1364.88 491.253 1361.87 486.214 1358.29C483.703 1356.76 481.662 1354.55 480.317 1351.93C479.252 1348.63 479.39 1345.06 480.706 1341.85C483.174 1334.79 487.514 1328.53 493.259 1323.76C499.004 1318.98 505.937 1315.87 513.313 1314.75C519.747 1313.87 527.253 1314.16 531.542 1309.22C533.784 1306.63 534.953 1302.67 538.268 1301.64C540.356 1301.2 542.529 1301.46 544.458 1302.37C552.5 1305.21 560.493 1308.05 568.535 1310.89C571.216 1312.12 574.179 1312.61 577.113 1312.31C578.567 1312.12 579.896 1311.38 580.828 1310.24C581.761 1309.11 582.227 1307.66 582.133 1306.19C581.354 1302.18 575.212 1300.27 575.797 1296.21C576.081 1294.88 576.782 1293.68 577.795 1292.79C586.488 1283.51 597.117 1276.27 608.922 1271.59C620.727 1266.92 633.415 1264.92 646.08 1265.73C649.102 1270.77 644.325 1276.69 640.28 1280.95C636.283 1285.25 633.066 1292.88 637.94 1296.16C639.906 1297.2 642.106 1297.7 644.325 1297.63C650.252 1298.43 656.012 1300.18 661.384 1302.82C669.719 1306.44 677.907 1310.45 685.9 1314.75C684.723 1309.51 684.925 1304.05 686.485 1298.9C687.366 1296.38 689.151 1294.27 691.494 1293C693.837 1291.72 696.569 1291.37 699.157 1292C703.934 1293.86 706.371 1300.22 711.488 1300.81C718.263 1301.59 720.944 1291.52 718.117 1285.25C715.29 1278.99 709.636 1273.81 709.198 1266.91C708.857 1262.31 710.611 1256.59 706.956 1253.8C705.656 1252.93 704.168 1252.4 702.618 1252.23C672.009 1246.61 641.385 1240.96 610.744 1235.31C605.285 1234.28 597.438 1235.06 597.194 1240.59C597.048 1243.72 599.826 1246.8 598.608 1249.64C597.292 1252.67 593.003 1252.43 589.883 1253.5C587.54 1254.57 585.606 1256.38 584.375 1258.64C583.143 1260.91 582.682 1263.52 583.06 1266.08C583.893 1271.16 585.859 1276 588.811 1280.21C582.816 1277.72 573.799 1277.28 567.804 1274.74C566.932 1267.77 565.163 1260.94 562.54 1254.43C562.39 1253.4 562.016 1252.41 561.444 1251.53C560.871 1250.66 560.115 1249.92 559.227 1249.37C558.34 1248.82 557.343 1248.47 556.307 1248.35C555.271 1248.22 554.221 1248.33 553.231 1248.66C545.335 1249.88 537.439 1251.06 529.543 1252.28C527.561 1252.38 525.662 1253.11 524.133 1254.38C521.063 1257.66 524.085 1262.9 523.987 1267.4C523.702 1269.91 522.643 1272.28 520.957 1274.16C519.271 1276.05 517.042 1277.36 514.58 1277.92C509.62 1278.93 504.501 1278.86 499.569 1277.72C488.505 1276.01 477.49 1274.3 466.426 1272.58C476.192 1269.46 484.877 1263.63 491.478 1255.75C495.864 1250.57 498.204 1240.88 491.868 1238.44C489.997 1237.92 488.044 1237.77 486.116 1238C471.105 1238.09 459.261 1225.52 445.224 1220.19C440.81 1218.54 436.141 1217.68 431.431 1217.65L415.736 1236.97Z" fill="#3F3D56"/>
<path id="Vector_9" d="M1694.57 1718.05C1692.85 1720.36 1690.59 1722.22 1687.99 1723.46C1685.39 1724.69 1682.53 1725.27 1679.65 1725.14C1664.4 1723.82 1657.96 1701.76 1642.85 1699.26C1641.52 1698.92 1640.1 1699.06 1638.86 1699.65C1636.61 1700.88 1636.22 1703.91 1636.08 1706.45C1635.44 1719.07 1634.91 1732.19 1639.83 1743.83C1647 1760.85 1665.57 1775.14 1661.67 1793.19C1640.71 1783.45 1629.79 1759.83 1624.87 1737.18C1619.9 1714.53 1619.12 1690.75 1610.25 1669.32C1603.47 1677.98 1589.34 1670.84 1583.2 1661.74C1577.35 1653.13 1573.74 1643.15 1568.09 1634.39C1562.43 1625.69 1553.76 1617.86 1543.42 1617.37C1532.56 1616.88 1523.1 1624.37 1514.81 1631.46C1507.61 1636.8 1501.55 1643.56 1497.02 1651.32C1491.22 1663.06 1492.74 1676.86 1492.44 1689.92C1492.15 1704.01 1489.18 1718.93 1479.58 1729.3C1469.97 1739.62 1452.28 1743.24 1441.71 1733.9C1436.59 1728.55 1432.95 1721.96 1431.13 1714.77C1419.63 1681.14 1410.06 1646.87 1402.47 1612.14C1400.72 1620.06 1393.75 1630.28 1387.12 1625.64C1385.63 1624.37 1384.44 1622.8 1383.61 1621.04C1371.23 1600.05 1348.37 1587.43 1325.22 1579.85C1302.12 1572.31 1277.79 1568.79 1254.94 1560.48C1242.12 1555.8 1229.87 1549.68 1218.43 1542.23C1215.52 1546.53 1213.83 1551.53 1213.52 1556.71C1213.21 1561.89 1214.3 1567.07 1216.67 1571.68C1219.24 1576.19 1223.23 1579.73 1228 1581.74C1232.78 1583.74 1238.08 1584.11 1243.09 1582.78C1248.16 1581.12 1252.45 1577.6 1257.47 1575.84C1262.49 1574.12 1269.26 1574.96 1271.46 1579.85C1273.6 1584.5 1270.39 1590.12 1271.99 1595.01C1274.38 1602.4 1285.54 1602.99 1289.44 1609.74C1290.59 1612.41 1290.85 1615.38 1290.19 1618.22C1289.54 1621.05 1287.99 1623.6 1285.79 1625.49C1281.3 1629.16 1276.35 1632.22 1271.07 1634.59C1254.69 1643.74 1243.04 1659.34 1228.71 1671.48C1214.38 1683.66 1194.16 1692.51 1177.1 1684.73C1181.14 1664.04 1156.63 1648.87 1152.09 1628.28C1150.58 1621.48 1151.36 1614.29 1149.27 1607.68C1146.2 1598.1 1137.72 1591.54 1130.8 1584.3C1122.39 1575.41 1115.83 1564.93 1111.52 1553.46C1107.21 1541.99 1105.23 1529.77 1105.69 1517.52C1106.08 1509.01 1107.64 1500.35 1105.69 1492.04C1103.79 1483.77 1096.92 1475.75 1088.44 1476.09C1069.09 1476.97 1044.67 1478.44 1034.54 1461.85C1030.88 1455.93 1029.32 1447.28 1034.58 1442.73C1036.64 1441.42 1038.94 1440.53 1041.34 1440.12C1043.74 1439.71 1046.2 1439.78 1048.57 1440.33C1063.15 1441.75 1077.67 1443.22 1092.24 1444.63C1102.43 1445.61 1113.44 1446.44 1122.22 1441.11C1130.99 1435.78 1134.79 1421.54 1126.65 1415.23C1120.76 1410.63 1110.13 1410.88 1108.38 1403.59C1106.96 1397.48 1113.69 1390.58 1110.03 1385.44C1107.45 1381.82 1101.6 1382.8 1098.04 1385.54C1094.94 1388.77 1091.56 1391.74 1087.95 1394.39C1080.98 1398.01 1072.7 1394.54 1065.19 1392.19C1057.69 1389.84 1047.65 1389.65 1044.04 1396.64C1039.94 1404.42 1047.6 1414.69 1043.6 1422.52C1038.24 1432.84 1020.21 1426.97 1012.7 1435.88C1004.12 1446.05 1018.55 1461.32 1015.67 1474.33C1011.97 1476.17 1007.85 1477.02 1003.73 1476.79C999.602 1476.56 995.606 1475.25 992.131 1473.01C988.721 1470.68 986.004 1467.47 984.27 1463.71C982.536 1459.95 981.851 1455.79 982.286 1451.68C982.968 1445.81 986.039 1439.79 983.992 1434.26C981.785 1429.99 978.141 1426.65 973.708 1424.82C959.573 1416.95 945.439 1409.1 931.305 1401.29C927.357 1408.63 932.328 1417.68 938.567 1423.21C944.757 1428.69 952.555 1432.84 956.649 1440.08C959.241 1445.1 959.827 1450.92 958.287 1456.36C956.748 1461.8 953.198 1466.44 948.363 1469.34C947.751 1469.76 947.055 1470.04 946.323 1470.17C945.591 1470.3 944.841 1470.26 944.123 1470.07C943.447 1469.67 942.858 1469.14 942.389 1468.51C941.92 1467.88 941.582 1467.17 941.393 1466.4C933.936 1447.18 922.678 1428.25 904.741 1418.22C886.756 1408.14 860.973 1410.24 849.178 1427.12C846.4 1431.13 844.499 1435.73 842.062 1439.99C829.146 1462.54 801.365 1473.2 775.435 1472.52C772.899 1472.68 770.372 1472.08 768.173 1470.81C763.982 1467.92 764.177 1461.76 764.81 1456.67C765.736 1449.48 766.613 1442.33 767.539 1435.14C767.562 1430.75 769.253 1426.54 772.267 1423.35C777.092 1419.54 784.014 1421.93 790.155 1421.84C794.79 1421.63 799.248 1419.99 802.92 1417.15C806.593 1414.3 809.301 1410.39 810.674 1405.94C811.909 1401.45 811.899 1396.71 810.645 1392.22C809.391 1387.74 806.941 1383.69 803.558 1380.5C800.78 1377.86 797.027 1374.53 798.489 1370.96C799.084 1369.98 799.884 1369.13 800.835 1368.49C801.786 1367.85 802.865 1367.42 803.997 1367.24C814.963 1364.06 826.612 1363.23 837.383 1359.42C848.203 1355.65 858.682 1347.92 861.266 1336.72C862.046 1333.29 862.387 1329.13 865.457 1327.42C867.008 1326.8 868.661 1326.47 870.331 1326.44C876.192 1325.6 881.526 1322.59 885.287 1318C889.047 1313.41 890.962 1307.57 890.656 1301.64C895.822 1298.02 903.084 1300.71 908.104 1304.58C913.076 1308.44 917.511 1313.53 923.604 1315.19C934.96 1318.32 945.926 1308.2 957.721 1308.15C962.693 1308.15 967.81 1309.91 972.441 1308.2C977.168 1306.48 979.996 1301.79 983.602 1298.31C987.258 1294.79 993.594 1292.69 996.957 1296.46C995.982 1289.36 995.056 1282.32 994.081 1275.27C999.823 1276.72 1005.81 1276.93 1011.63 1275.86C1017.46 1274.8 1022.99 1272.5 1027.86 1269.11C1015.58 1264.95 1003.34 1260.79 991.059 1256.63C989.769 1256.32 988.579 1255.68 987.599 1254.78C984.918 1251.89 987.599 1247.39 989.743 1244.11C994.958 1236.23 995.836 1223.27 987.258 1219.36C981.409 1216.67 974.731 1219.9 969.126 1223.03C960.158 1228.02 951.19 1233.06 942.222 1238.04C941.394 1243.18 947.632 1246.12 951.483 1249.54C953.829 1251.63 955.49 1254.38 956.248 1257.44C957.005 1260.49 956.823 1263.71 955.726 1266.66C954.629 1269.6 952.667 1272.15 950.101 1273.96C947.534 1275.77 944.481 1276.76 941.345 1276.79C943.111 1279.1 944.339 1281.79 944.938 1284.64C945.537 1287.49 945.491 1290.44 944.806 1293.28C938.811 1293.72 932.767 1294.16 926.723 1294.6C925.719 1294.8 924.686 1294.8 923.682 1294.6C922.678 1294.39 921.724 1293.99 920.875 1293.42C918.925 1291.71 919.217 1288.68 918.73 1286.13C917.927 1283.09 916.235 1280.36 913.872 1278.3C911.509 1276.23 908.584 1274.92 905.473 1274.54C899.263 1273.84 892.977 1274.42 887 1276.25C884.402 1277.17 881.558 1277.1 879.007 1276.06C877.56 1275.09 876.465 1273.69 875.888 1272.04C874.827 1268.69 874.646 1265.12 875.364 1261.67C876.081 1258.23 877.671 1255.03 879.982 1252.38C884.662 1247.16 889.819 1242.4 895.384 1238.14C907.995 1227.06 917.264 1212.66 922.142 1196.56C932.085 1192.35 942.369 1186.68 952.36 1182.47C960.393 1178.74 968.81 1175.9 977.461 1174.01C985.603 1172.76 993.852 1172.37 1002.07 1172.83C1013.28 1173.03 1024.54 1173.23 1035.75 1173.47C1045.76 1173.05 1055.76 1174.49 1065.24 1177.73C1074.45 1181.54 1082.59 1189.81 1083.23 1199.79C1083.42 1200.93 1083.32 1202.09 1082.93 1203.18C1082.55 1204.27 1081.9 1205.24 1081.03 1206C1079.74 1206.72 1078.27 1207.06 1076.79 1206.98C1067.48 1207.27 1063.54 1209.62 1054.23 1209.96C1060.12 1216.28 1066.75 1222.93 1075.33 1224.05C1090.44 1226.01 1101.31 1210.31 1108.28 1196.66C1108.53 1200.13 1110.12 1203.37 1112.71 1205.68C1115.31 1208 1118.7 1209.2 1122.17 1209.04C1125.9 1208.39 1129.47 1206.99 1132.65 1204.93C1162.63 1188.48 1196.21 1179.77 1230.37 1179.59C1230.04 1176.99 1230.67 1174.36 1232.16 1172.21C1233.64 1170.06 1235.87 1168.54 1238.41 1167.94C1245.38 1166.57 1251.62 1172.59 1254.98 1178.85C1258.3 1185.11 1260.39 1192.35 1265.76 1197.05C1271.07 1201.75 1281.35 1201.5 1283.45 1194.75C1285.5 1188.24 1278.72 1182.67 1273.12 1178.8C1267.46 1174.99 1261.56 1167.89 1265.37 1162.22C1294.02 1155.81 1322.93 1149.45 1352.32 1148.18C1357.31 1148.33 1362.29 1147.47 1366.94 1145.63C1369.24 1144.66 1371.16 1142.94 1372.39 1140.76C1373.63 1138.57 1374.11 1136.04 1373.76 1133.55C1367.35 1135.05 1360.64 1134.61 1354.47 1132.28C1348.31 1129.94 1342.98 1125.82 1339.16 1120.44C1369.33 1117.95 1400.91 1115.74 1429.91 1122.54L1455.3 1144.17C1450.48 1149.21 1444.04 1153.95 1447.55 1158.99C1448.71 1160.15 1450.12 1161.03 1451.66 1161.56C1453.21 1162.09 1454.85 1162.27 1456.47 1162.07C1462.61 1162.17 1468.76 1162.32 1474.85 1162.32C1600.92 1283.35 1678.51 1446.49 1693.01 1620.99C1682.77 1620.6 1673.36 1633.61 1674.68 1644.96C1676.24 1658.12 1685.7 1668.69 1692.47 1680.04C1693.59 1681.88 1694.6 1683.79 1695.49 1685.76L1694.57 1718.05Z" fill="#3F3D56"/>
<path id="Vector_10" d="M1 2683.03L1784.97 2679.77" stroke="#3F3D56" stroke-width="2" stroke-miterlimit="10"/>
<path id="Vector_11" d="M351.937 336.557C386.084 336.557 413.765 308.773 413.765 274.5C413.765 240.227 386.084 212.444 351.937 212.444C317.791 212.444 290.109 240.227 290.109 274.5C290.109 308.773 317.791 336.557 351.937 336.557Z" stroke="#3F3D56" stroke-width="2" stroke-miterlimit="10"/>
<path id="Vector_12" d="M1756.75 900.111C1790.89 900.111 1818.58 872.328 1818.58 838.055C1818.58 803.782 1790.89 775.999 1756.75 775.999C1722.6 775.999 1694.92 803.782 1694.92 838.055C1694.92 872.328 1722.6 900.111 1756.75 900.111Z" stroke="#3F3D56" stroke-width="2" stroke-miterlimit="10"/>
<path id="Vector_13" d="M1351.1 1431.94C1389.42 1431.94 1420.48 1400.76 1420.48 1362.29C1420.48 1323.83 1389.42 1292.65 1351.1 1292.65C1312.78 1292.65 1281.71 1323.83 1281.71 1362.29C1281.71 1400.76 1312.78 1431.94 1351.1 1431.94Z" fill="#3F3D56"/>
<path id="Vector_14" d="M1423.69 1819C1424.47 1813.87 1428.73 1809.34 1427.4 1804.37C1426.48 1800.94 1423.17 1799.24 1420.17 1799.16C1417.17 1799.07 1414.22 1800.15 1411.22 1800.25C1409.27 1800.13 1407.31 1800.16 1405.36 1800.35C1399.41 1801.53 1395.74 1809.03 1390.13 1811.7C1386.71 1813.32 1382.88 1813.01 1379.33 1814.13C1371.28 1816.67 1366.18 1825.82 1360.55 1833.2C1351.45 1845.06 1339.6 1853.37 1326.52 1857.05C1321.94 1858.32 1317.02 1859.14 1313.38 1862.71C1308.56 1867.45 1307.37 1875.56 1306.3 1882.94C1303.33 1903.29 1298.8 1923.27 1292.77 1942.63L1311.9 1945.56C1315.53 1946.12 1319.3 1946.66 1322.81 1945.37C1325.35 1944.22 1327.76 1942.67 1329.98 1940.78C1338.5 1934.42 1348.04 1930.28 1357.97 1928.63C1362.98 1927.81 1368.23 1927.66 1372.93 1929.89C1377.63 1932.13 1381.66 1937.21 1382.06 1943.27C1384.09 1942.51 1386.26 1942.42 1388.33 1943.03C1390.39 1943.63 1392.29 1944.9 1393.8 1946.7C1396.8 1950.37 1398.76 1955.07 1399.41 1960.15C1399.91 1963.3 1400.42 1967.07 1402.85 1968.39C1404.83 1969.46 1407.1 1968.3 1409.27 1968.09C1416.62 1967.39 1422.72 1977.69 1429.95 1975.92C1437.71 1974.02 1439.61 1960.06 1447.17 1957.27C1451.52 1955.66 1457.61 1957.61 1459.69 1952.76C1461.52 1948.48 1457.86 1943.54 1458.24 1938.74C1458.71 1932.84 1464.5 1930.34 1468.96 1927.82C1484.36 1919.14 1491.66 1894.24 1484.2 1875.87C1479.78 1864.99 1471.09 1856.43 1469.48 1844.47C1468.24 1835.28 1471.26 1824.55 1466.38 1817.31C1463.9 1813.63 1459.7 1811.6 1458.22 1807.2C1457.29 1804.44 1457.66 1801.3 1457.16 1798.38C1456.66 1795.45 1454.54 1792.4 1452.14 1793.16C1445.17 1795.35 1442.95 1821.23 1439.22 1827.51C1433.55 1837.07 1421.9 1830.78 1423.69 1819Z" fill="#3F3D56"/>
<path id="Vector_15" d="M680.768 1102.68L688.137 1104.39C686.781 1104.31 685.427 1104.59 684.167 1105.2C682.906 1105.8 681.768 1106.72 680.827 1107.9C679.887 1109.08 679.166 1110.48 678.713 1112.02C678.26 1113.56 678.085 1115.2 678.2 1116.82C685.101 1119.59 692.624 1116.9 699.893 1117.27C707.163 1117.63 715.62 1123.87 714.379 1132.49C714.004 1135.1 712.752 1137.7 713.403 1140.22C713.859 1141.99 715.158 1143.25 715.891 1144.88C717.419 1148.28 716.198 1152.57 714.269 1155.66C712.34 1158.75 709.747 1161.22 708.054 1164.5C703.842 1172.66 706.235 1183.21 708.744 1192.33C709.469 1195.78 710.809 1198.99 712.67 1201.75C716.386 1206.5 722.443 1206.92 727.868 1207.01C731.816 1207.08 736.339 1206.85 738.836 1203.17C742.095 1198.37 739.816 1190.88 741.962 1185.25C743.911 1180.13 748.877 1177.94 753.376 1176.38C761.619 1173.53 770.019 1171.1 777.811 1166.8C787.487 1161.45 796.53 1153.11 807.165 1152.42C810.149 1152.23 813.207 1152.65 816.081 1151.67C818.955 1150.69 821.685 1147.7 821.467 1144.12C821.282 1141.06 819.127 1138.81 817.444 1136.5C815.761 1134.2 814.439 1130.65 815.986 1128.21L843.862 1121.95C841.886 1115.48 840.347 1106.95 844.887 1102.74C846.526 1101.22 848.719 1100.61 850.114 1098.78C852.491 1095.64 851.296 1090.25 848.552 1087.59C845.807 1084.92 842.097 1084.3 838.581 1083.95C826.358 1082.73 814.065 1083.54 801.818 1084.35C777.878 1085.92 753.938 1087.5 729.998 1089.08C725.179 1089.39 719.615 1088.91 715.195 1090.89C711.453 1092.56 708.792 1095.63 704.512 1096.71C696.612 1098.7 687.918 1097.35 680.768 1102.68Z" fill="#3F3D56"/>
<g id="AnimationSvg">
<path id="Vector_16" d="M2919.81 1957.67H2890.26V3244.48H2919.81V1957.67Z" fill="#3F3D56"/>
<path id="Vector_17" d="M3177.91 2121.29C3179.7 2571.81 2906.31 2938.51 2906.31 2938.51C2906.31 2938.51 2630.01 2574.75 2628.22 2124.22C2626.43 1673.69 2899.82 1307 2899.82 1307C2899.82 1307 3176.12 1670.76 3177.91 2121.29Z" fill="#575A89"/>
<path id="Vector_18" d="M2357.3 2562.83H2342.53V3226.08H2357.3V2562.83Z" fill="#3F3D56"/>
<path id="Vector_19" d="M2491.27 2647.76C2492.2 2879.58 2351.58 3068.25 2351.58 3068.25C2351.58 3068.25 2209.47 2881.09 2208.55 2649.27C2207.63 2417.46 2348.24 2228.78 2348.24 2228.78C2348.24 2228.78 2490.35 2415.95 2491.27 2647.76Z" fill="#575A89"/>
<path id="Vector_20" d="M2642.5 3314.19C2858.77 3314.19 3034.09 3282.98 3034.09 3244.48C3034.09 3205.97 2858.77 3174.76 2642.5 3174.76C2426.23 3174.76 2250.91 3205.97 2250.91 3244.48C2250.91 3282.98 2426.23 3314.19 2642.5 3314.19Z" fill="#3F3D56"/>
<path id="Vector_21" d="M2674.13 1621.33C2640.99 1556.22 2575.41 1553.18 2575.41 1553.18C2575.41 1553.18 2511.52 1543.68 2470.53 1642.85C2432.32 1735.29 2379.6 1824.54 2462.04 1846.18L2476.93 1792.29L2486.15 1850.19C2497.89 1851.17 2509.67 1851.41 2521.43 1850.89C2609.72 1847.58 2693.8 1851.86 2691.1 1815.02C2687.5 1766.05 2706.02 1683.99 2674.13 1621.33Z" fill="#2F2E41"/>
<path id="Vector_22" d="M2555.31 1743.06C2555.31 1743.06 2598.14 1812.6 2572.44 1868.89C2546.75 1925.18 2632.39 1984.78 2632.39 1984.78L2695.2 1825.84C2695.2 1825.84 2620.97 1769.55 2640.96 1716.57L2555.31 1743.06Z" fill="#FBBEBE"/>
<path id="Vector_23" d="M2582.9 1772.73C2623.7 1772.73 2656.78 1734.37 2656.78 1687.04C2656.78 1639.71 2623.7 1601.35 2582.9 1601.35C2542.09 1601.35 2509.01 1639.71 2509.01 1687.04C2509.01 1734.37 2542.09 1772.73 2582.9 1772.73Z" fill="#FBBEBE"/>
<path id="Vector_24" d="M2326.76 1786.87L2388.87 1693.97C2388.87 1693.97 2410.74 1596.59 2442.41 1601.53C2474.08 1606.47 2429.9 1718.31 2429.9 1718.31L2368.19 1821.14L2326.76 1786.87Z" fill="#FBBEBE"/>
<path id="Vector_25" d="M2641.02 3024L2661.08 3146.95L2704.07 3160.24L2692.6 3014.03L2641.02 3024Z" fill="#FBBEBE"/>
<path id="Vector_26" d="M3072.51 2891.57L3149.47 3014.81L3180.83 3031.46L3206.48 2981.5L3129.52 2864.92L3072.51 2891.57Z" fill="#FBBEBE"/>
<path id="Vector_27" d="M2623.46 1932.34L2575.84 1859.6C2575.84 1859.6 2483.59 1879.34 2475.03 1889.28C2466.46 1899.21 2497.86 2081.4 2497.86 2081.4C2497.86 2081.4 2503.57 2131.09 2529.26 2157.59L2554.95 2177.46L2766.18 2127.77L2774.12 2018.71C2777.01 1978.98 2772.72 1938.99 2761.52 1901.3C2750.33 1863.61 2732.47 1829.06 2709.09 1799.84L2672.34 1805.67L2623.46 1932.34Z" fill="#D0CDE1"/>
<path id="Vector_28" d="M2486.04 1896.05L2471.83 1889.43L2406.44 1882.82C2406.44 1882.82 2383.7 1876.2 2389.38 1862.96C2395.07 1849.73 2400.75 1846.42 2389.38 1843.11C2378.01 1839.8 2375.17 1836.49 2378.01 1826.56C2380.85 1816.64 2397.91 1796.78 2397.91 1796.78L2349.58 1750.46C2349.58 1750.46 2346.97 1752.61 2342.74 1756.6C2318.74 1779.21 2242.82 1860.79 2298.41 1942.37C2363.8 2038.33 2440.56 2094.58 2503.1 2074.73L2486.04 1896.05Z" fill="#D0CDE1"/>
<path id="Vector_29" d="M2549.57 2162.17V2208.55C2549.57 2208.55 2523.87 2264.86 2532.43 2317.87C2541 2370.87 2543.86 2397.37 2543.86 2397.37C2544.79 2442.45 2551.53 2487.11 2563.85 2529.87C2583.84 2596.12 2518.15 3030.08 2600.97 3036.7C2683.79 3043.33 2729.48 3049.95 2755.18 3016.83C2780.89 2983.7 2712.35 2413.93 2712.35 2413.93C2712.35 2413.93 2946.52 2980.39 2995.07 2957.2C3043.62 2934.01 3166.42 2881.01 3152.14 2851.2C3137.86 2821.38 2778.03 2158.86 2778.03 2158.86L2766.61 2129.05L2549.57 2162.17Z" fill="#2F2E41"/>
<path id="Vector_30" d="M2686.72 3123.72C2686.72 3123.72 2641.27 3120.39 2641.27 3137.03C2641.27 3153.67 2618.54 3210.25 2618.54 3210.25C2618.54 3210.25 2601.49 3276.81 2646.95 3270.15C2692.4 3263.49 2720.82 3203.59 2720.82 3203.59L2709.45 3140.36L2686.72 3123.72Z" fill="#2F2E41"/>
<path id="Vector_31" d="M3163.02 3007.58C3163.02 3007.58 3122.99 2977.8 3125.85 2997.65C3128.71 3017.5 3131.57 3070.43 3151.58 3073.74C3171.6 3077.05 3231.64 3096.9 3234.5 3103.51C3237.36 3110.13 3305.98 3136.6 3305.98 3093.59C3305.98 3050.58 3263.09 3017.5 3263.09 3017.5L3214.49 2974.5C3214.49 2974.5 3183.03 2971.19 3177.32 2994.35C3171.6 3017.5 3163.02 3007.58 3163.02 3007.58Z" fill="#2F2E41"/>
<path id="Vector_32" d="M2583.39 1608.13C2609.78 1608.13 2631.17 1583.42 2631.17 1552.94C2631.17 1522.46 2609.78 1497.75 2583.39 1497.75C2557 1497.75 2535.61 1522.46 2535.61 1552.94C2535.61 1583.42 2557 1608.13 2583.39 1608.13Z" fill="#2F2E41"/>
<path id="Vector_33" d="M2530.97 1538.41C2530.97 1524.78 2535.37 1511.63 2543.32 1501.5C2551.27 1491.37 2562.21 1484.97 2574.03 1483.53C2572.35 1483.33 2570.66 1483.22 2568.96 1483.22C2556.2 1483.22 2543.96 1489.04 2534.93 1499.39C2525.9 1509.74 2520.83 1523.78 2520.83 1538.41C2520.83 1553.05 2525.9 1567.09 2534.93 1577.44C2543.96 1587.79 2556.2 1593.6 2568.96 1593.6C2570.66 1593.6 2572.35 1593.5 2574.03 1593.29C2562.21 1591.86 2551.27 1585.46 2543.32 1575.32C2535.37 1565.19 2530.97 1552.04 2530.97 1538.41Z" fill="#2F2E41"/>
<path id="Vector_34" d="M2659.6 1615.34L2594.63 1576.17L2504.92 1592.2L2486.35 1686.56L2532.56 1684.51L2545.47 1649.85V1683.94L2566.79 1683L2579.16 1627.81L2586.9 1686.56L2662.69 1684.78L2659.6 1615.34Z" fill="#2F2E41"/>
<path id="Vector_35" d="M2656.78 2168.79L2555.94 2171.89C2555.94 2171.89 2469.9 2190.98 2474.73 2151.39C2479.56 2111.81 2563.5 2125.66 2563.5 2125.66L2655.38 2109.68L2656.78 2168.79Z" fill="#FBBEBE"/>
<path id="Vector_36" d="M2734.86 1794.31C2739.9 1793.43 2745.06 1794.66 2749.4 1797.78C2753.73 1800.9 2756.96 1805.71 2758.5 1811.34C2778.17 1883.04 2838.76 2122.96 2778.56 2155.88C2707.66 2194.65 2655.91 2192.94 2655.91 2192.94L2628.21 2114.06L2653.43 2086.69L2680.34 1886.47L2693.24 1801.6L2734.86 1794.31Z" fill="#D0CDE1"/>
<path id="Vector_37" opacity="0.4" d="M2715.89 1927.65L2704.47 2060.04L2604.57 2109.68L2715.89 2079.9V1927.65Z" fill="black"/>
<path id="Vector_38" d="M2167.65 1496.77C2200.59 1504.08 2230.45 1525.27 2251.38 1556.19L2262.21 1572.18L2262.74 1572.83L2430.9 1615.3C2433.99 1616.08 2436.73 1618.22 2438.54 1621.25C2440.35 1624.29 2441.08 1627.99 2440.58 1631.54L2432.84 1686.48C2432.59 1688.27 2432.03 1689.98 2431.2 1691.49C2430.37 1693 2429.29 1694.3 2428.01 1695.31C2426.72 1696.32 2425.27 1697.01 2423.74 1697.36C2422.2 1697.7 2420.61 1697.69 2419.06 1697.32L2251.08 1657.32L2251.07 1657.33L2235.35 1665.83C2206.39 1681.48 2173.41 1685.42 2141.55 1677.03L2167.65 1496.77Z" fill="#3F3D56"/>
<path id="Vector_39" d="M2349.59 1646.73C2351.15 1640.57 2344.34 1632.84 2334.39 1629.46C2324.43 1626.08 2315.11 1628.33 2313.56 1634.49C2312 1640.65 2318.81 1648.39 2328.76 1651.77C2338.71 1655.15 2348.04 1652.89 2349.59 1646.73Z" fill="#575A89"/>
<path id="Vector_40" d="M2345.9 1647.16C2349.75 1646.85 2352.54 1642.96 2352.13 1638.48C2351.72 1633.99 2348.27 1630.59 2344.42 1630.9C2340.57 1631.21 2337.78 1635.09 2338.19 1639.58C2338.6 1644.07 2342.05 1647.46 2345.9 1647.16Z" fill="#3F3D56"/>
<path id="Vector_41" d="M2190.77 1598.27C2199.94 1548.41 2191.44 1503.42 2171.79 1497.78C2152.13 1492.14 2128.77 1527.99 2119.6 1577.84C2110.43 1627.7 2118.93 1672.7 2138.59 1678.34C2158.24 1683.98 2181.61 1648.13 2190.77 1598.27Z" fill="#00BFA6"/>
<path id="Vector_42" opacity="0.4" d="M2185.9 1596.63C2194.85 1548.46 2187.23 1504.83 2168.92 1496.67C2169.98 1496.73 2171.04 1496.92 2172.08 1497.21C2191.92 1502.85 2200.47 1547.96 2191.19 1597.95C2181.9 1647.94 2158.28 1683.9 2138.44 1678.25C2137.72 1678.05 2137.02 1677.79 2136.32 1677.47C2155.45 1678.74 2177.1 1643.99 2185.9 1596.63Z" fill="black"/>
<path id="Vector_43" d="M1473 349.143L1493 344.265C1493 344.265 1476.2 367.189 1473 368.653C1472.7 373.523 1472.7 378.414 1473 383.285C1434.6 584.239 1293 495.468 1293 495.468C1344.6 496.931 1349 471.08 1349 471.08C1319 465.715 1313 441.815 1313 441.815C1315.69 443.547 1318.81 444.006 1321.76 443.106C1324.72 442.206 1327.29 440.01 1329 436.938C1296.6 426.695 1301 388.163 1301 388.163C1306.77 393.247 1313.52 396.438 1320.6 397.43C1317 392.065 1286.6 347.679 1305 324.755C1305 324.755 1327.4 373.53 1386.2 377.92L1390.2 376.944C1389.52 373.431 1389.25 369.819 1389.4 366.214C1389.4 352.631 1393.83 339.605 1401.7 330C1409.58 320.396 1420.26 315 1431.4 315C1459.4 315 1465.4 334.51 1465.4 334.51L1485.4 319.878C1485 319.878 1483 344.265 1473 349.143Z" fill="#3F3D56"/>
</g>
</g>
<g id="magnifyingGlass ">
<path id="Vector_44" d="M1132.63 1396.73C1100.88 1365.49 1062.84 1340.58 1020.76 1323.45C978.677 1306.33 933.397 1297.34 887.584 1297.01C841.772 1296.68 796.353 1305.03 754.002 1321.55C711.651 1338.07 673.223 1362.44 640.98 1393.22C510.974 1517.17 508.774 1718.96 635.929 1845.43C691.782 1901.06 766.652 1936.2 847.278 1944.63C927.905 1953.06 1009.08 1934.23 1076.44 1891.48L1324.73 2135.63C1326.25 2137.13 1328.07 2138.33 1330.08 2139.17C1332.09 2140 1334.26 2140.45 1336.45 2140.49C1338.65 2140.53 1340.83 2140.16 1342.87 2139.41C1344.92 2138.65 1346.79 2137.52 1348.37 2136.08L1410.24 2079.82C1411.82 2078.38 1413.09 2076.66 1413.98 2074.76C1414.86 2072.86 1415.33 2070.81 1415.38 2068.73C1415.42 2066.66 1415.03 2064.59 1414.23 2062.66C1413.43 2060.72 1412.23 2058.96 1410.71 2057.46L1162.42 1813.31C1210.02 1751.64 1233.12 1676.07 1227.68 1599.89C1222.23 1523.71 1188.58 1451.78 1132.63 1396.73ZM1055.29 1789.32C1020.27 1821.17 976.053 1842.49 928.223 1850.58C880.394 1858.67 831.103 1853.17 786.582 1834.76C742.062 1816.36 704.312 1785.88 678.106 1747.19C651.9 1708.5 638.416 1663.32 639.357 1617.38C640.299 1571.44 655.625 1526.8 683.397 1489.09C711.169 1451.39 750.14 1422.32 795.382 1405.56C840.623 1388.8 890.103 1385.11 937.565 1394.95C985.027 1404.78 1028.34 1427.71 1062.02 1460.82C1084.39 1482.81 1101.96 1508.75 1113.72 1537.15C1125.49 1565.56 1131.22 1595.89 1130.6 1626.39C1129.97 1656.89 1123 1686.98 1110.08 1714.94C1097.16 1742.89 1078.54 1768.17 1055.29 1789.32Z" fill="#00BFA6"/>
<path id="Vector_45" d="M703.076 1557.19C675.44 1557.19 675.395 1597.78 703.076 1597.78C730.756 1597.78 730.733 1557.19 703.076 1557.19Z" fill="#00BFA6"/>
<path id="Vector_46" d="M895.649 1427.19C821.295 1425.6 753.61 1460.88 717.645 1514.24C705.904 1531.6 739.242 1546.95 750.916 1529.67C780.706 1485.58 837.325 1457.49 898.5 1459.04C962.661 1460.57 1021.05 1495.28 1051.97 1543.45C1063.71 1561.73 1094.42 1545.11 1082.77 1526.93C1045.25 1468.44 972.472 1428.85 895.649 1427.19Z" fill="#00BFA6"/>
</g>
</g>
</svg>
