<svg width="92" height="75" viewBox="0 0 92 75" fill="none" xmlns="http://www.w3.org/2000/svg">
<path fill-rule="evenodd" clip-rule="evenodd" d="M59.7579 0.0143054C58.8941 0.0406438 58.0343 0.103063 57.1765 0.201796C50.3146 0.991356 43.7271 4.08577 38.7238 9.3361C34.6088 13.654 32.0696 18.9195 31.1115 24.4057C30.6074 24.3174 30.1045 24.2239 29.5962 24.1654C23.7614 23.4938 17.6936 24.7856 12.497 28.1613C2.25388 34.8151 -1.64728 47.6721 3.13585 58.6988L0.0334409 73.1883C-0.0216265 73.4421 -0.0085111 73.7054 0.0715073 73.9527C0.151526 74.1999 0.295713 74.4227 0.489994 74.5992C0.684276 74.7757 0.922013 74.8998 1.18 74.9596C1.43799 75.0194 1.70741 75.0127 1.96197 74.9402L15.1203 71.2256C26.0147 76.6065 39.3549 73.6974 46.8392 64.1947C48.584 61.9792 49.8688 59.5473 50.7501 57.0173C58.2857 59.6027 66.7782 59.2398 74.2937 55.4939L90.0394 59.9351C90.2934 60.0072 90.5621 60.0138 90.8194 59.9543C91.0768 59.8947 91.314 59.7711 91.5081 59.5954C91.7022 59.4197 91.8466 59.1978 91.9271 58.9514C92.0077 58.705 92.0217 58.4424 91.9679 58.1891L88.2546 40.9107C93.9436 27.9183 89.3657 12.7471 77.2883 4.90078C71.94 1.42598 65.8046 -0.170063 59.7579 0.0143054ZM59.8537 2.99658C65.2798 2.83194 70.7841 4.27223 75.5934 7.39675C86.5861 14.5385 90.673 28.3854 85.266 40.1607C85.1246 40.4678 85.093 40.8124 85.1761 41.1392C85.1796 41.1627 85.1835 41.1862 85.1881 41.2095L88.4403 56.3669L74.7968 52.5117C74.7378 52.4945 74.6778 52.4808 74.6171 52.4706C74.4527 52.4193 74.2806 52.3956 74.1081 52.4003V52.4062C73.8671 52.4129 73.6311 52.4752 73.4193 52.5878C66.4792 56.2296 58.5628 56.5779 51.5826 54.1288C52.9071 47.9814 51.8173 41.4758 48.4083 35.9949H78.1747C78.3779 35.9977 78.5796 35.961 78.7682 35.8869C78.9567 35.8128 79.1283 35.7027 79.273 35.5632C79.4177 35.4236 79.5326 35.2573 79.611 35.0739C79.6894 34.8906 79.7298 34.6938 79.7298 34.495C79.7298 34.2962 79.6894 34.0994 79.611 33.916C79.5326 33.7327 79.4177 33.5664 79.273 33.4268C79.1283 33.2872 78.9567 33.1772 78.7682 33.1031C78.5796 33.029 78.3779 32.9922 78.1747 32.9951H46.2103C45.9072 32.6393 45.6142 32.2769 45.288 31.9346C42.1463 28.6384 38.2637 26.3504 34.1001 25.1029C34.9339 20.1075 37.2216 15.314 40.9697 11.3809C46.0312 6.06978 52.8773 3.20826 59.8537 2.99658ZM44.3357 14.996C43.929 15.0162 43.5472 15.1936 43.2743 15.4891C43.0014 15.7847 42.8596 16.1743 42.8803 16.5721C42.9009 16.9699 43.0823 17.3434 43.3844 17.6104C43.6866 17.8774 44.0847 18.016 44.4914 17.9958H78.1628C78.3659 17.9986 78.5676 17.9619 78.7562 17.8878C78.9447 17.8137 79.1163 17.7036 79.261 17.5641C79.4057 17.4245 79.5206 17.2582 79.599 17.0748C79.6774 16.8915 79.7178 16.6947 79.7178 16.4959C79.7178 16.2971 79.6774 16.1003 79.599 15.9169C79.5206 15.7336 79.4057 15.5673 79.261 15.4277C79.1163 15.2882 78.9447 15.1781 78.7562 15.104C78.5676 15.0299 78.3659 14.9932 78.1628 14.996H44.4914C44.4395 14.9934 44.3875 14.9934 44.3357 14.996ZM44.3357 23.9955C43.929 24.0157 43.5472 24.1931 43.2743 24.4887C43.0014 24.7843 42.8596 25.1738 42.8803 25.5716C42.9009 25.9694 43.0823 26.3429 43.3844 26.6099C43.6866 26.8769 44.0847 27.0156 44.4914 26.9954H78.1628C78.3659 26.9982 78.5676 26.9615 78.7562 26.8873C78.9447 26.8132 79.1163 26.7032 79.261 26.5636C79.4057 26.4241 79.5206 26.2578 79.599 26.0744C79.6774 25.891 79.7178 25.6942 79.7178 25.4954C79.7178 25.2967 79.6774 25.0999 79.599 24.9165C79.5206 24.7331 79.4057 24.5668 79.261 24.4273C79.1163 24.2877 78.9447 24.1777 78.7562 24.1035C78.5676 24.0294 78.3659 23.9927 78.1628 23.9955H44.4914C44.4395 23.9929 44.3875 23.9929 44.3357 23.9955ZM27.3083 26.9954C33.1203 27.1718 38.824 29.5536 43.042 33.9794C50.5407 41.8474 51.1187 53.8397 44.4075 62.3608C37.6964 70.8818 25.6918 73.3922 16.0007 68.3077C15.8162 68.2097 15.6131 68.1498 15.404 68.1317C15.1948 68.1135 14.9841 68.1376 14.7849 68.2023C14.7426 68.2103 14.7006 68.2201 14.6591 68.2316L3.56109 71.3662L6.20832 58.9859C6.20836 58.9801 6.20836 58.9742 6.20832 58.9684C6.30554 58.6326 6.28012 58.2742 6.13645 57.9547C1.63054 48.1425 5.03118 36.6081 14.1919 30.6573C18.1998 28.0538 22.7879 26.8581 27.3083 26.9954ZM13.6709 38.9948C13.2642 39.015 12.8825 39.1924 12.6095 39.4879C12.3366 39.7835 12.1949 40.173 12.2155 40.5709C12.2362 40.9687 12.4175 41.3421 12.7196 41.6091C13.0218 41.8762 13.42 42.0148 13.8266 41.9946H41.377C41.5802 41.9974 41.7819 41.9607 41.9704 41.8866C42.159 41.8125 42.3306 41.7024 42.4753 41.5629C42.6199 41.4233 42.7348 41.257 42.8133 41.0736C42.8917 40.8903 42.9321 40.6935 42.9321 40.4947C42.9321 40.2959 42.8917 40.0991 42.8133 39.9157C42.7348 39.7324 42.6199 39.5661 42.4753 39.4265C42.3306 39.2869 42.159 39.1769 41.9704 39.1028C41.7819 39.0287 41.5802 38.9919 41.377 38.9948H13.8266C13.7747 38.9922 13.7228 38.9922 13.6709 38.9948ZM55.9368 41.9946C55.5301 42.0148 55.1484 42.1922 54.8754 42.4878C54.6025 42.7834 54.4608 43.1729 54.4814 43.5707C54.502 43.9685 54.6834 44.342 54.9855 44.609C55.2877 44.876 55.6859 45.0147 56.0925 44.9945H63.4652C63.6684 44.9973 63.8701 44.9605 64.0586 44.8864C64.2472 44.8123 64.4188 44.7023 64.5635 44.5627C64.7082 44.4232 64.8231 44.2569 64.9015 44.0735C64.9799 43.8901 65.0203 43.6933 65.0203 43.4945C65.0203 43.2958 64.9799 43.099 64.9015 42.9156C64.8231 42.7322 64.7082 42.5659 64.5635 42.4263C64.4188 42.2868 64.2472 42.1768 64.0586 42.1026C63.8701 42.0285 63.6684 41.9918 63.4652 41.9946H56.0925C56.0406 41.992 55.9887 41.992 55.9368 41.9946ZM13.6709 47.9943C13.2642 48.0145 12.8825 48.1919 12.6095 48.4875C12.3366 48.7831 12.1949 49.1726 12.2155 49.5704C12.2362 49.9682 12.4175 50.3417 12.7196 50.6087C13.0218 50.8757 13.42 51.0144 13.8266 50.9942H41.377C41.5802 50.997 41.7819 50.9602 41.9704 50.8861C42.159 50.812 42.3306 50.702 42.4753 50.5624C42.6199 50.4229 42.7348 50.2566 42.8133 50.0732C42.8917 49.8898 42.9321 49.693 42.9321 49.4942C42.9321 49.2955 42.8917 49.0987 42.8133 48.9153C42.7348 48.7319 42.6199 48.5656 42.4753 48.426C42.3306 48.2865 42.159 48.1764 41.9704 48.1023C41.7819 48.0282 41.5802 47.9915 41.377 47.9943H13.8266C13.7747 47.9917 13.7228 47.9917 13.6709 47.9943ZM13.6469 56.9939C13.2403 57.0141 12.8585 57.1915 12.5856 57.487C12.3126 57.7826 12.1709 58.1721 12.1915 58.5699C12.2122 58.9677 12.3935 59.3412 12.6957 59.6082C12.9978 59.8752 13.396 60.0139 13.8026 59.9937H26.0686C26.2717 59.9965 26.4734 59.9598 26.662 59.8857C26.8505 59.8116 27.0221 59.7015 27.1668 59.562C27.3115 59.4224 27.4264 59.2561 27.5048 59.0727C27.5832 58.8893 27.6236 58.6926 27.6236 58.4938C27.6236 58.295 27.5832 58.0982 27.5048 57.9148C27.4264 57.7315 27.3115 57.5652 27.1668 57.4256C27.0221 57.286 26.8505 57.176 26.662 57.1019C26.4734 57.0278 26.2717 56.991 26.0686 56.9939H13.8026C13.7508 56.9913 13.6988 56.9913 13.6469 56.9939Z" fill="url(#paint0_linear)"/>
<defs>
<linearGradient id="paint0_linear" x1="0.00042832" y1="37.5008" x2="85.8649" y2="37.5008" gradientUnits="userSpaceOnUse">
<stop stop-color="#3F3D56"/>
<stop offset="1" stop-color="#00BFA6"/>
</linearGradient>
</defs>
</svg>
