<svg width="911" height="691" viewBox="0 0 911 691" fill="none" xmlns="http://www.w3.org/2000/svg">
<g id="homeSVG">
<g id="Vector">
<path id="Vector_2" d="M848.412 283.914H0V691H848.412V283.914Z" fill="#00BFA6" fill-opacity="0.7"/>
</g>
<path id="Vector_3" d="M150.498 461C152.754 461 154.582 459.151 154.582 456.87C154.582 454.589 152.754 452.74 150.498 452.74C148.243 452.74 146.414 454.589 146.414 456.87C146.414 459.151 148.243 461 150.498 461Z" fill="#3F3D56"/>
<path id="Vector_4" d="M164.501 461C166.756 461 168.585 459.151 168.585 456.87C168.585 454.589 166.756 452.74 164.501 452.74C162.245 452.74 160.417 454.589 160.417 456.87C160.417 459.151 162.245 461 164.501 461Z" fill="#3F3D56"/>
<path id="Vector_5" d="M178.503 461C180.758 461 182.587 459.151 182.587 456.87C182.587 454.589 180.758 452.74 178.503 452.74C176.247 452.74 174.419 454.589 174.419 456.87C174.419 459.151 176.247 461 178.503 461Z" fill="#3F3D56"/>
<path id="Vector_6" opacity="0.1" d="M224.145 283.914L0 439.529V359.807L109.313 283.914H224.145Z" fill="black"/>
<path id="Vector_7" d="M129.593 399.975L114.238 383.327L130.7 367.799L146.055 384.447L129.593 399.975ZM116.685 383.413L129.678 397.5L143.607 384.361L130.615 370.274L116.685 383.413Z" fill="#F0F0F0"/>
<path id="Vector_8" d="M636.309 389.504H613.798V366.738H636.309V389.504ZM615.529 387.753H634.577V368.489H615.529V387.753Z" fill="#3F3D56"/>
<path id="Vector_9" d="M775.784 583.791C782.132 583.791 787.277 578.587 787.277 572.168C787.277 565.749 782.132 560.545 775.784 560.545C769.437 560.545 764.291 565.749 764.291 572.168C764.291 578.587 769.437 583.791 775.784 583.791Z" fill="#F0F0F0"/>
<path id="Vector_10" d="M333.493 552.246C339.84 552.246 344.986 547.042 344.986 540.623C344.986 534.204 339.84 529 333.493 529C327.146 529 322 534.204 322 540.623C322 547.042 327.146 552.246 333.493 552.246Z" fill="black"/>
<path id="Vector_11" d="M775.784 605.745C769.217 605.745 762.798 603.776 757.338 600.086C751.878 596.397 747.622 591.153 745.109 585.018C742.596 578.882 741.939 572.131 743.22 565.618C744.501 559.104 747.663 553.121 752.307 548.426C756.95 543.73 762.866 540.532 769.307 539.236C775.747 537.941 782.423 538.606 788.49 541.147C794.557 543.688 799.742 547.992 803.391 553.514C807.039 559.035 808.986 565.527 808.986 572.168C808.976 581.07 805.475 589.605 799.251 595.9C793.026 602.194 784.587 605.735 775.784 605.745ZM775.784 541.174C769.723 541.174 763.797 542.992 758.757 546.397C753.717 549.803 749.789 554.644 747.469 560.307C745.149 565.971 744.542 572.203 745.725 578.215C746.907 584.227 749.826 589.75 754.113 594.084C758.399 598.419 763.86 601.371 769.805 602.567C775.75 603.763 781.912 603.149 787.513 600.803C793.113 598.457 797.899 594.485 801.267 589.388C804.635 584.291 806.432 578.298 806.432 572.168C806.423 563.951 803.191 556.073 797.445 550.262C791.7 544.452 783.91 541.183 775.784 541.174Z" fill="#2F2E41"/>
<path id="Vector_12" d="M408.091 321.888L414.136 334.277L427.655 336.263L417.873 345.906L420.182 359.523L408.091 353.094L395.998 359.523L398.308 345.906L388.526 336.263L402.045 334.277L408.091 321.888Z" fill="#F0F0F0"/>
<path id="Vector_13" d="M429.946 42.5576H429.946C450.836 42.5576 467.771 61.564 467.771 85.0096V114.798H458.712L453.467 103.761L454.779 114.798H396.55L391.783 104.764L392.974 114.798H386.419V91.4087C386.419 64.429 405.906 42.5576 429.946 42.5576Z" fill="#2F2E41"/>
<path id="Vector_14" d="M473.287 237.176L496.511 247.158L577.217 313.508C580.184 317.196 582.003 321.692 582.442 326.426C583.023 334.059 607.408 373.986 598.699 379.271C589.99 384.555 558.637 400.409 556.895 389.84C555.153 379.271 545.864 334.059 545.864 334.059L468.062 263.598L473.287 237.176Z" fill="#2F2E41"/>
<path id="Vector_15" d="M564.443 381.033L574.314 410.391C574.314 410.391 563.863 421.547 569.088 430.942V463.236H577.217L579.539 446.208C579.539 446.208 588.798 463.021 593.474 463.236C603.277 463.687 622.689 467.214 623.27 461.929C623.851 456.645 608.57 451.493 608.57 451.493L592.313 406.281L585.345 378.684L564.443 381.033Z" fill="#2F2E41"/>
<path id="Vector_16" d="M412.903 229.543C412.903 229.543 407.678 281.214 422.774 290.608C437.87 300.003 504.64 329.949 504.64 329.949C504.64 329.949 476.19 356.959 481.996 363.417C487.802 369.876 513.93 387.491 517.414 383.968C520.897 380.445 559.798 338.169 555.153 324.664C550.509 311.159 486.061 267.122 486.061 267.122L478.513 239.525L476.19 217.212L451.804 201.359L412.903 229.543Z" fill="#2F2E41"/>
<path id="Vector_17" d="M439.504 109.24C452.872 109.24 463.709 98.2804 463.709 84.7615C463.709 71.2426 452.872 60.2833 439.504 60.2833C426.136 60.2833 415.299 71.2426 415.299 84.7615C415.299 98.2804 426.136 109.24 439.504 109.24Z" fill="#FFB9B9"/>
<path id="Vector_18" d="M420.742 94.7871C420.742 94.7871 421.903 117.1 403.904 124.146C385.905 131.192 448.611 176.991 448.611 176.991V125.907C448.611 125.907 440.482 117.1 448.611 103.595L420.742 94.7871Z" fill="#FFB9B9"/>
<path id="Vector_19" d="M382.131 199.597L386.776 222.497L400.71 301.177C400.71 301.177 389.098 334.646 404.775 334.059C420.451 333.472 412.903 297.654 412.903 297.654L404.775 232.478V207.23L382.131 199.597Z" fill="#FFB9B9"/>
<path id="Vector_20" d="M481.996 188.441L487.222 208.992L511.027 267.121C511.027 267.121 527.284 294.718 513.93 294.131C500.576 293.544 500.576 267.121 500.576 267.121L473.287 220.148V193.725L481.996 188.441Z" fill="#FFB9B9"/>
<path id="Vector_21" d="M486.061 359.894L466.9 378.097C466.9 378.097 453.546 375.161 448.321 391.014C443.095 406.868 439.612 416.85 439.612 416.85L446.579 420.96L455.288 408.63C455.288 408.63 460.514 430.942 465.739 432.703C470.965 434.465 497.092 446.208 494.77 432.703L481.996 413.914C481.996 413.914 480.254 392.776 485.48 391.014C490.705 389.253 504.64 371.638 504.64 371.638L486.061 359.894Z" fill="#2F2E41"/>
<path id="Vector_22" d="M411.983 247.745C411.983 247.745 466.56 227.781 470.044 229.543C472.637 230.701 475.399 231.426 478.222 231.689L478.173 223.671C478.173 223.671 460.174 217.212 450.303 221.322C440.433 225.432 410.241 243.635 410.241 243.635L411.983 247.745Z" fill="#3F3D56"/>
<path id="Vector_23" d="M445.127 165.248C445.127 165.248 429.451 147.045 424.806 135.889C421.867 129.126 416.473 123.762 409.737 120.904C409.737 120.904 374.873 128.843 375.454 142.935C376.034 157.027 397.517 178.753 397.517 178.753C397.517 178.753 394.614 256.846 410.291 255.672C413.672 251.591 416.058 246.764 417.258 241.58C419 233.359 472.997 224.552 472.997 224.552C472.997 224.552 477.642 232.772 478.222 229.249C478.803 225.726 473.577 139.412 473.577 139.412L445.89 120.904L445.127 165.248Z" fill="#D0CDE1"/>
<path id="Vector_24" d="M379.926 137.263L379.538 137.483C378.297 138.188 377.264 139.213 376.545 140.455C375.826 141.697 375.447 143.11 375.447 144.549L375.453 188.125C375.449 189.309 375.19 190.478 374.694 191.551C374.198 192.625 373.477 193.576 372.581 194.339C370.345 196.263 368.271 199.035 372.551 200.478C379.518 202.826 406.807 214.57 407.388 210.46C407.968 206.349 409.129 201.652 407.388 201.652C406.024 201.652 397.899 159.547 391.371 141.545C390.972 140.443 390.341 139.441 389.522 138.61C388.703 137.779 387.715 137.137 386.627 136.73C385.538 136.323 384.376 136.159 383.219 136.251C382.062 136.343 380.938 136.689 379.926 137.263Z" fill="#D0CDE1"/>
<path id="Vector_25" d="M465.739 137.357L473.868 139.706L483.158 180.22C483.158 180.22 494.189 182.569 490.705 186.679C487.222 190.789 472.707 201.358 472.707 201.358L465.739 137.357Z" fill="#D0CDE1"/>
<path id="Vector_26" d="M419.193 54.2517C421.013 51.7799 423.372 49.7654 426.086 48.3645C428.801 46.9636 431.798 46.2141 434.845 46.174H435.588C449.906 46.174 461.513 59.2767 461.513 75.4398V75.4399H456.716L455.941 69.4756L454.805 75.4399H426.35L423.966 70.394L424.562 75.4399H418.964C416.352 88.5591 420.105 101.678 430.224 114.798H420.688L415.92 104.706L417.112 114.798H398.934L395.358 91.5865C395.358 74.2037 405.346 59.4634 419.193 54.2517Z" fill="#2F2E41"/>
<g id="Group 11">
<path id="Vector_27" d="M708.151 448.824H140.262V691H708.151V448.824Z" fill="#F0F0F0"/>
<path id="Vector_28" d="M708.151 463.601H140.262V465.908H708.151V463.601Z" fill="#3F3D56"/>
<path id="star1" d="M441.61 552.454L447.656 564.843L461.175 566.829L451.393 576.472L453.702 590.088L441.61 583.66L429.518 590.088L431.827 576.472L422.045 566.829L435.564 564.843L441.61 552.454Z" fill="#00BFA6"/>
<path id="star2" d="M490.505 554.185L496.551 566.575L510.07 568.56L500.287 578.204L502.597 591.82L490.505 585.392L478.414 591.82L480.723 578.204L470.941 568.56L484.46 566.575L490.505 554.185Z" fill="#00BFA6"/>
<path id="star3" d="M539.401 554.185L545.447 566.575L558.966 568.56L549.183 578.204L551.493 591.82L539.401 585.392L527.309 591.82L529.618 578.204L519.836 568.56L533.355 566.575L539.401 554.185Z" fill="#00BFA6"/>
<path id="star4" d="M588.296 554.185L594.342 566.575L607.861 568.56L598.078 578.204L600.388 591.82L588.296 585.392L576.205 591.82L578.514 578.204L568.732 568.56L582.251 566.575L588.296 554.185Z" fill="#00BFA6"/>
<path id="star5" d="M637.192 554.185L643.238 566.575L656.757 568.56L646.974 578.204L649.283 591.82L637.192 585.392L625.099 591.82L627.409 578.204L617.627 568.56L631.146 566.575L637.192 554.185Z" fill="#00BFA6"/>
<g id="Group 10">
<path id="Vector_29" opacity="0.1" d="M479.068 283.914L0 616.514V536.78L364.236 283.914H479.068Z" fill="black"/>
</g>
<g id="Shape">
<path d="M321.779 579.398L304.838 577.216C298.234 569.95 288.504 567.564 279.799 571.077C269.741 575.306 263.25 586.311 263.712 598.347H211.559C209.703 598.365 207.975 599.409 206.942 601.138C205.808 602.983 205.562 605.338 206.283 607.428C209.824 617.62 220.2 640.445 242.757 643.357C236.777 651.272 229.449 657.767 221.201 662.462C218.969 663.755 217.753 666.534 218.209 669.306C218.573 672.06 220.503 674.222 222.959 674.628C229.25 675.706 235.603 676.258 241.967 676.279C256.378 676.279 273.342 673.214 286.31 661.732C297.725 651.63 304.373 636.473 306.084 616.43C308.885 612.899 310.842 608.629 311.774 604.019L324.916 590.695C326.629 588.975 327.268 586.279 326.545 583.832C325.882 581.424 324.012 579.684 321.779 579.398ZM321.465 586.412L307.703 600.368C307.289 600.788 307.008 601.348 306.902 601.964C306.19 606.184 304.402 610.082 301.755 613.186C301.348 613.677 301.099 614.307 301.048 614.976C299.645 633.708 293.613 647.915 283.124 657.203C265.138 673.125 238.191 671.373 223.731 668.919C223.477 668.874 223.288 668.631 223.283 668.342C223.211 668.036 223.335 667.714 223.584 667.565C242.206 656.655 249.535 642.8 249.834 642.217C250.293 641.325 250.293 640.226 249.835 639.333C249.376 638.441 248.529 637.89 247.61 637.888C224.843 637.888 214.474 615.117 211.067 605.326C210.969 605.012 211.011 604.664 211.18 604.391C211.254 604.233 211.391 604.126 211.548 604.103H266.53C267.293 604.103 268.017 603.723 268.506 603.066C268.995 602.408 269.199 601.542 269.062 600.7C268.931 599.901 268.863 599.09 268.859 598.278C268.423 588.722 273.519 579.937 281.484 576.512C288.606 573.625 296.576 575.755 301.773 581.932C302.19 582.425 302.747 582.738 303.348 582.815L321.19 585.125C321.413 585.155 321.595 585.34 321.643 585.586C321.742 585.876 321.672 586.205 321.465 586.412Z" fill="#3F3D56"/>
<path d="M321.779 579.398L304.838 577.216C298.234 569.95 288.504 567.564 279.799 571.077C269.741 575.306 263.25 586.311 263.712 598.347H211.559C209.703 598.365 207.975 599.409 206.942 601.138C205.808 602.983 205.562 605.338 206.283 607.428C209.824 617.62 220.2 640.445 242.757 643.357C236.777 651.272 229.449 657.767 221.201 662.462C218.969 663.755 217.753 666.534 218.209 669.306C218.573 672.06 220.503 674.222 222.959 674.628C229.25 675.706 235.603 676.258 241.967 676.279C256.378 676.279 273.342 673.214 286.31 661.732C297.725 651.63 304.373 636.473 306.084 616.43C308.885 612.899 310.842 608.629 311.774 604.019L324.916 590.695C326.629 588.975 327.268 586.279 326.545 583.832C325.882 581.424 324.012 579.684 321.779 579.398ZM321.465 586.412L307.703 600.368C307.289 600.788 307.008 601.348 306.902 601.964C306.19 606.184 304.402 610.082 301.755 613.186C301.348 613.677 301.099 614.307 301.048 614.976C299.645 633.708 293.613 647.915 283.124 657.203C265.138 673.125 238.191 671.373 223.731 668.919C223.477 668.874 223.288 668.631 223.283 668.342C223.211 668.036 223.335 667.714 223.584 667.565C242.206 656.655 249.535 642.8 249.834 642.217C250.293 641.325 250.293 640.226 249.835 639.333C249.376 638.441 248.529 637.89 247.61 637.888C224.843 637.888 214.474 615.117 211.067 605.326C210.969 605.012 211.011 604.664 211.18 604.391C211.254 604.233 211.391 604.126 211.548 604.103H266.53C267.293 604.103 268.017 603.723 268.506 603.066C268.995 602.408 269.199 601.542 269.062 600.7C268.931 599.901 268.863 599.09 268.859 598.278C268.423 588.722 273.519 579.937 281.484 576.512C288.606 573.625 296.576 575.755 301.773 581.932C302.19 582.425 302.747 582.738 303.348 582.815L321.19 585.125C321.413 585.155 321.595 585.34 321.643 585.586C321.742 585.876 321.672 586.205 321.465 586.412Z" stroke="black"/>
</g>
<g id="Shape_2">
<path d="M349.99 503.097H216.17C210.485 503.097 205.877 508.266 205.877 514.642V552.165C205.877 558.541 210.485 563.711 216.17 563.711H326.291L333.594 582.129C334.213 583.693 335.596 584.702 337.122 584.702C338.649 584.702 340.031 583.693 340.651 582.129L347.954 563.711H349.99C355.675 563.711 360.283 558.541 360.283 552.165V514.642C360.283 508.266 355.675 503.097 349.99 503.097ZM355.137 552.165C355.137 555.353 352.832 557.938 349.99 557.938H346.284C345.267 557.937 344.346 558.608 343.932 559.649L337.122 576.818L330.313 559.649C329.899 558.608 328.978 557.937 327.961 557.938H216.17C213.328 557.938 211.024 555.353 211.024 552.165V514.642C211.024 511.454 213.328 508.869 216.17 508.869H349.99C352.832 508.869 355.137 511.454 355.137 514.642V552.165Z" fill="#3F3D56"/>
<path d="M349.99 503.097H216.17C210.485 503.097 205.877 508.266 205.877 514.642V552.165C205.877 558.541 210.485 563.711 216.17 563.711H326.291L333.594 582.129C334.213 583.693 335.596 584.702 337.122 584.702C338.649 584.702 340.031 583.693 340.651 582.129L347.954 563.711H349.99C355.675 563.711 360.283 558.541 360.283 552.165V514.642C360.283 508.266 355.675 503.097 349.99 503.097ZM355.137 552.165C355.137 555.353 352.832 557.938 349.99 557.938H346.284C345.267 557.937 344.346 558.608 343.932 559.649L337.122 576.818L330.313 559.649C329.899 558.608 328.978 557.937 327.961 557.938H216.17C213.328 557.938 211.024 555.353 211.024 552.165V514.642C211.024 511.454 213.328 508.869 216.17 508.869H349.99C352.832 508.869 355.137 511.454 355.137 514.642V552.165Z" stroke="black"/>
</g>
<g id="Shape_3">
<path d="M272.786 607.006C271.365 607.006 270.213 608.299 270.213 609.893C270.213 610.077 270.03 628.591 258.594 636.286C257.788 636.807 257.295 637.776 257.306 638.819C257.317 639.863 257.829 640.819 258.645 641.319C259.462 641.82 260.456 641.787 261.244 641.233C275.2 631.829 275.36 610.785 275.36 609.893C275.36 608.299 274.208 607.006 272.786 607.006Z" fill="#3F3D56"/>
<path d="M272.786 607.006C271.365 607.006 270.213 608.299 270.213 609.893C270.213 610.077 270.03 628.591 258.594 636.286C257.788 636.807 257.295 637.776 257.306 638.819C257.317 639.863 257.829 640.819 258.645 641.319C259.462 641.82 260.456 641.787 261.244 641.233C275.2 631.829 275.36 610.785 275.36 609.893C275.36 608.299 274.208 607.006 272.786 607.006Z" stroke="black"/>
</g>
<g id="Shape_4">
<path d="M223.891 523.301H234.185C235.606 523.301 236.758 522.009 236.758 520.415C236.758 518.821 235.606 517.528 234.185 517.528H223.891C222.469 517.528 221.317 518.821 221.317 520.415C221.317 522.009 222.469 523.301 223.891 523.301Z" fill="#3F3D56"/>
<path d="M223.891 523.301H234.185C235.606 523.301 236.758 522.009 236.758 520.415C236.758 518.821 235.606 517.528 234.185 517.528H223.891C222.469 517.528 221.317 518.821 221.317 520.415C221.317 522.009 222.469 523.301 223.891 523.301Z" stroke="black"/>
</g>
<g id="Shape_5">
<path d="M244.478 523.301H277.933C279.354 523.301 280.507 522.009 280.507 520.415C280.507 518.821 279.354 517.528 277.933 517.528H244.478C243.057 517.528 241.905 518.821 241.905 520.415C241.905 522.009 243.057 523.301 244.478 523.301Z" fill="#3F3D56"/>
<path d="M244.478 523.301H277.933C279.354 523.301 280.507 522.009 280.507 520.415C280.507 518.821 279.354 517.528 277.933 517.528H244.478C243.057 517.528 241.905 518.821 241.905 520.415C241.905 522.009 243.057 523.301 244.478 523.301Z" stroke="black"/>
</g>
<g id="Shape_6">
<path d="M319.108 517.528H288.227C286.806 517.528 285.654 518.821 285.654 520.415C285.654 522.009 286.806 523.301 288.227 523.301H319.108C320.53 523.301 321.682 522.009 321.682 520.415C321.682 518.821 320.53 517.528 319.108 517.528Z" fill="#3F3D56"/>
<path d="M319.108 517.528H288.227C286.806 517.528 285.654 518.821 285.654 520.415C285.654 522.009 286.806 523.301 288.227 523.301H319.108C320.53 523.301 321.682 522.009 321.682 520.415C321.682 518.821 320.53 517.528 319.108 517.528Z" stroke="black"/>
</g>
<g id="Shape_7">
<path d="M252.199 531.96H223.891C222.469 531.96 221.317 533.253 221.317 534.847C221.317 536.441 222.469 537.733 223.891 537.733H252.199C253.62 537.733 254.772 536.441 254.772 534.847C254.772 533.253 253.62 531.96 252.199 531.96Z" fill="#3F3D56"/>
<path d="M252.199 531.96H223.891C222.469 531.96 221.317 533.253 221.317 534.847C221.317 536.441 222.469 537.733 223.891 537.733H252.199C253.62 537.733 254.772 536.441 254.772 534.847C254.772 533.253 253.62 531.96 252.199 531.96Z" stroke="black"/>
</g>
<g id="Shape_8">
<path d="M301.094 531.96H265.066C263.645 531.96 262.492 533.253 262.492 534.847C262.492 536.441 263.645 537.733 265.066 537.733H301.094C302.515 537.733 303.668 536.441 303.668 534.847C303.668 533.253 302.515 531.96 301.094 531.96Z" fill="#3F3D56"/>
<path d="M301.094 531.96H265.066C263.645 531.96 262.492 533.253 262.492 534.847C262.492 536.441 263.645 537.733 265.066 537.733H301.094C302.515 537.733 303.668 536.441 303.668 534.847C303.668 533.253 302.515 531.96 301.094 531.96Z" stroke="black"/>
</g>
</g>
<path id="Vector_30" d="M333.493 552.246C339.84 552.246 344.986 547.042 344.986 540.623C344.986 534.204 339.84 529 333.493 529C327.146 529 322 534.204 322 540.623C322 547.042 327.146 552.246 333.493 552.246Z" fill="#00BFA6"/>
<path id="Vector_31" d="M333.493 552.246C339.84 552.246 344.986 547.042 344.986 540.623C344.986 534.204 339.84 529 333.493 529C327.146 529 322 534.204 322 540.623C322 547.042 327.146 552.246 333.493 552.246Z" fill="#00BFA6"/>
<path id="Vector_32" d="M333 549C337.418 549 341 545.418 341 541C341 536.582 337.418 533 333 533C328.582 533 325 536.582 325 541C325 545.418 328.582 549 333 549Z" fill="#F0F0F0"/>
</g>
</svg>
